<?xml version="1.0" encoding="UTF-8" standalone="no"?>
<svg
   xmlns:dc="http://purl.org/dc/elements/1.1/"
   xmlns:cc="http://creativecommons.org/ns#"
   xmlns:rdf="http://www.w3.org/1999/02/22-rdf-syntax-ns#"
   xmlns:svg="http://www.w3.org/2000/svg"
   xmlns="http://www.w3.org/2000/svg"
   xmlns:xlink="http://www.w3.org/1999/xlink"
   xmlns:sodipodi="http://sodipodi.sourceforge.net/DTD/sodipodi-0.dtd"
   xmlns:inkscape="http://www.inkscape.org/namespaces/inkscape"
   sodipodi:docname="halloran_research.svg"
   inkscape:version="1.0 (4035a4f, 2020-05-01)"
   id="svg8"
   version="1.1"
   viewBox="0 0 338.66582 190.50001"
   height="7.5in"
   width="13.3333in">
  <defs
     id="defs2">
    <linearGradient
       id="linearGradient2922"
       inkscape:collect="always">
      <stop
         id="stop2918"
         offset="0"
         style="stop-color:#fd0000;stop-opacity:1;" />
      <stop
         id="stop2920"
         offset="1"
         style="stop-color:#fd0000;stop-opacity:0;" />
    </linearGradient>
    <marker
       inkscape:stockid="Arrow1Send"
       orient="auto"
       refY="0.0"
       refX="0.0"
       id="marker1152"
       style="overflow:visible;"
       inkscape:isstock="true">
      <path
         id="path1150"
         d="M 0.0,0.0 L 5.0,-5.0 L -12.5,0.0 L 5.0,5.0 L 0.0,0.0 z "
         style="fill-rule:evenodd;stroke:#000000;stroke-width:1pt;stroke-opacity:1;fill:#000000;fill-opacity:1"
         transform="scale(0.2) rotate(180) translate(6,0)" />
    </marker>
    <marker
       inkscape:stockid="Arrow1Sstart"
       orient="auto"
       refY="0.0"
       refX="0.0"
       id="Arrow1Sstart"
       style="overflow:visible"
       inkscape:isstock="true">
      <path
         id="path1070"
         d="M 0.0,0.0 L 5.0,-5.0 L -12.5,0.0 L 5.0,5.0 L 0.0,0.0 z "
         style="fill-rule:evenodd;stroke:#000000;stroke-width:1pt;stroke-opacity:1;fill:#000000;fill-opacity:1"
         transform="scale(0.2) translate(6,0)" />
    </marker>
    <marker
       inkscape:isstock="true"
       style="overflow:visible;"
       id="marker1840"
       refX="0.0"
       refY="0.0"
       orient="auto"
       inkscape:stockid="Arrow1Send">
      <path
         transform="scale(0.2) rotate(180) translate(6,0)"
         style="fill-rule:evenodd;stroke:#000000;stroke-width:1pt;stroke-opacity:1;fill:#000000;fill-opacity:1"
         d="M 0.0,0.0 L 5.0,-5.0 L -12.5,0.0 L 5.0,5.0 L 0.0,0.0 z "
         id="path1838" />
    </marker>
    <marker
       inkscape:stockid="Arrow1Send"
       orient="auto"
       refY="0.0"
       refX="0.0"
       id="marker1798"
       style="overflow:visible;"
       inkscape:isstock="true"
       inkscape:collect="always">
      <path
         id="path1796"
         d="M 0.0,0.0 L 5.0,-5.0 L -12.5,0.0 L 5.0,5.0 L 0.0,0.0 z "
         style="fill-rule:evenodd;stroke:#000000;stroke-width:1pt;stroke-opacity:1;fill:#000000;fill-opacity:1"
         transform="scale(0.2) rotate(180) translate(6,0)" />
    </marker>
    <marker
       inkscape:stockid="Arrow1Mend"
       orient="auto"
       refY="0.0"
       refX="0.0"
       id="Arrow1Mend"
       style="overflow:visible;"
       inkscape:isstock="true">
      <path
         id="path1067"
         d="M 0.0,0.0 L 5.0,-5.0 L -12.5,0.0 L 5.0,5.0 L 0.0,0.0 z "
         style="fill-rule:evenodd;stroke:#000000;stroke-width:1pt;stroke-opacity:1;fill:#000000;fill-opacity:1"
         transform="scale(0.4) rotate(180) translate(10,0)" />
    </marker>
    <marker
       inkscape:stockid="Arrow1Send"
       orient="auto"
       refY="0.0"
       refX="0.0"
       id="marker1600"
       style="overflow:visible;"
       inkscape:isstock="true">
      <path
         id="path1598"
         d="M 0.0,0.0 L 5.0,-5.0 L -12.5,0.0 L 5.0,5.0 L 0.0,0.0 z "
         style="fill-rule:evenodd;stroke:#000000;stroke-width:1pt;stroke-opacity:0.538462;fill:#000000;fill-opacity:0.538462"
         transform="scale(0.2) rotate(180) translate(6,0)" />
    </marker>
    <marker
       inkscape:stockid="Arrow1Send"
       orient="auto"
       refY="0.0"
       refX="0.0"
       id="marker1502"
       style="overflow:visible;"
       inkscape:isstock="true">
      <path
         id="path1500"
         d="M 0.0,0.0 L 5.0,-5.0 L -12.5,0.0 L 5.0,5.0 L 0.0,0.0 z "
         style="fill-rule:evenodd;stroke:#000000;stroke-width:1pt;stroke-opacity:1;fill:#000000;fill-opacity:1"
         transform="scale(0.2) rotate(180) translate(6,0)" />
    </marker>
    <marker
       inkscape:stockid="Arrow1Send"
       orient="auto"
       refY="0.0"
       refX="0.0"
       id="marker1492"
       style="overflow:visible;"
       inkscape:isstock="true">
      <path
         id="path1490"
         d="M 0.0,0.0 L 5.0,-5.0 L -12.5,0.0 L 5.0,5.0 L 0.0,0.0 z "
         style="fill-rule:evenodd;stroke:#000000;stroke-width:1pt;stroke-opacity:1;fill:#000000;fill-opacity:1"
         transform="scale(0.2) rotate(180) translate(6,0)" />
    </marker>
    <marker
       inkscape:isstock="true"
       style="overflow:visible;"
       id="marker1340"
       refX="0.0"
       refY="0.0"
       orient="auto"
       inkscape:stockid="Arrow1Send"
       inkscape:collect="always">
      <path
         transform="scale(0.2) rotate(180) translate(6,0)"
         style="fill-rule:evenodd;stroke:#fd0000;stroke-width:1pt;stroke-opacity:0.197581;fill:#fd0000;fill-opacity:0.197581"
         d="M 0.0,0.0 L 5.0,-5.0 L -12.5,0.0 L 5.0,5.0 L 0.0,0.0 z "
         id="path1338" />
    </marker>
    <marker
       inkscape:collect="always"
       inkscape:isstock="true"
       style="overflow:visible;"
       id="marker1330"
       refX="0.0"
       refY="0.0"
       orient="auto"
       inkscape:stockid="Arrow1Send">
      <path
         transform="scale(0.2) rotate(180) translate(6,0)"
         style="fill-rule:evenodd;stroke:#fd0000;stroke-width:1pt;stroke-opacity:0.197581;fill:#fd0000;fill-opacity:0.197581"
         d="M 0.0,0.0 L 5.0,-5.0 L -12.5,0.0 L 5.0,5.0 L 0.0,0.0 z "
         id="path1328" />
    </marker>
    <filter
       height="3.322858"
       y="-1.161429"
       width="2.7364528"
       x="-0.8682264"
       id="filter1075"
       style="color-interpolation-filters:sRGB"
       inkscape:collect="always">
      <feGaussianBlur
         id="feGaussianBlur1077"
         stdDeviation="48.096964"
         inkscape:collect="always" />
    </filter>
    <radialGradient
       gradientUnits="userSpaceOnUse"
       gradientTransform="matrix(0.92971687,0,0,0.49924093,9.1904019,55.704681)"
       r="138.1571"
       fy="108.99785"
       fx="172.68057"
       cy="108.99785"
       cx="172.68057"
       id="radialGradient2924"
       xlink:href="#linearGradient2922"
       inkscape:collect="always" />
  </defs>
  <sodipodi:namedview
     inkscape:window-maximized="0"
     inkscape:window-y="25"
     inkscape:window-x="1668"
     inkscape:window-height="1027"
     inkscape:window-width="1920"
     units="in"
     showgrid="false"
     inkscape:document-rotation="0"
     inkscape:current-layer="layer1"
     inkscape:document-units="mm"
     inkscape:cy="289.06759"
     inkscape:cx="702.96561"
     inkscape:zoom="0.67253576"
     inkscape:pageshadow="2"
     inkscape:pageopacity="0.0"
     borderopacity="1.0"
     bordercolor="#666666"
     pagecolor="#ffffff"
     id="base" />
  <metadata
     id="metadata5">
    <rdf:RDF>
      <cc:Work
         rdf:about="">
        <dc:format>image/svg+xml</dc:format>
        <dc:type
           rdf:resource="http://purl.org/dc/dcmitype/StillImage" />
        <dc:title />
      </cc:Work>
    </rdf:RDF>
  </metadata>
  <g
     id="layer1"
     inkscape:groupmode="layer"
     inkscape:label="Layer 1">
    <path
       sodipodi:nodetypes="ccccccccccccccccccccccccccccccc"
       id="path863"
       d="m 32.24161,96.820493 c 8.274337,-0.14348 10.696094,5.308987 15.135981,5.452477 h 0.404382 c 4.439881,-0.14349 6.861639,-5.595957 15.135971,-5.452477 h 0.40289 c 8.274332,-0.14348 10.696089,5.308987 15.135973,5.452477 h 0.404376 c 4.439884,-0.14349 6.86164,-5.595957 15.13597,-5.452477 h 0.402894 c 8.274333,-0.14348 10.696093,5.308987 15.135973,5.452477 h 0.40438 c 4.43988,-0.14349 6.86163,-5.595957 15.13597,-5.452477 h 0.4029 c 8.27433,-0.14348 10.69609,5.308987 15.13597,5.452477 h 0.40438 c 4.43988,-0.14349 6.86165,-5.595957 15.33742,-5.452477 8.47579,-0.14348 10.89755,5.308987 15.33743,5.452477 h 0.40438 c 4.43989,-0.14349 6.86164,-5.595957 15.13598,-5.452477 h 0.40289 c 8.27434,-0.14348 10.69609,5.308987 15.13598,5.452477 h 0.40438 c 4.43989,-0.14349 6.86164,-5.595957 15.13597,-5.452477 h 0.4029 c 8.27434,-0.14348 10.6961,5.308987 15.13598,5.452477 h 0.40438 c 4.43988,-0.14349 6.86165,-5.595957 15.13598,-5.452477 h 0.40288 c 8.27435,-0.14348 10.6961,5.308987 15.136,5.452477 h 0.40437 c 4.43989,-0.14349 6.86164,-5.595957 15.13597,-5.452477"
       style="fill:none;fill-opacity:1;stroke:#0000ff;stroke-width:1.85943;stroke-linecap:butt;stroke-linejoin:miter;stroke-miterlimit:4;stroke-dasharray:none;stroke-opacity:0.433198" />
    <path
       sodipodi:nodetypes="csssc"
       id="path867"
       d="m 312.80936,81.174361 c 0,0 -13.86042,-1.839234 -24.66935,6.624682 -6.52742,5.11129 -7.86539,20.867887 -22.41971,22.191007 -38.65518,3.5141 -30.92414,28.11287 -55.5229,40.76365 -24.59876,12.65079 -176.40824,8.43387 -176.40824,8.43387"
       style="fill:none;stroke:#000000;stroke-width:1.85943;stroke-linecap:butt;stroke-linejoin:miter;stroke-miterlimit:4;stroke-dasharray:none;stroke-opacity:1" />
    <g
       transform="matrix(0.92971687,0,0,0.92971687,9.1904019,8.7837284)"
       id="g954">
      <g
         inkscape:label="Image"
         id="g2514"
         transform="matrix(0.26458333,0,0,0.26458333,233.65837,101.52505)">
        <g
           id="g3109">
          <path
             sodipodi:nodetypes="zsssssscz"
             id="path3096"
             d="M 21.394287,12.695511 C 20.261788,14.89393 22.081209,21.02055 18.093666,23.382112 14.106123,25.743674 9.0383677,30.138771 6.4000002,36.639998 3.7616327,43.141225 -1.603047,63.744186 15.838477,71.312094 33.280001,78.880002 64.41796,81.227757 74.057144,65.358369 83.696328,49.48898 83.108573,33.38449 78.17143,26.213878 73.234287,19.043266 64.300409,13.165714 58.540409,11.637551 54.876264,10.665431 44.199184,6.8179593 39.379593,6.8179593 32.189139,7.5100216 22.526785,10.497091 21.394287,12.695511 Z"
             style="fill:#ffffff;fill-opacity:0.813765;stroke:#000000;stroke-width:1px;stroke-linecap:butt;stroke-linejoin:miter;stroke-opacity:1" />
        </g>
      </g>
      <path
         id="path3098"
         d="m 238.95521,107.51997 c 1.00189,1.12889 1.00189,1.12889 1.00189,1.12889 0,0 1.09952,0.59669 2.45476,-0.63299 1.35524,-1.22968 1.95282,-1.70098 1.74171,-2.33265 -0.21111,-0.63167 -0.67828,-1.50188 -1.30628,-1.71061 -0.62801,-0.20873 -0.62801,-0.20873 -0.62801,-0.20873"
         style="fill:none;stroke:#000000;stroke-width:0.264583px;stroke-linecap:butt;stroke-linejoin:miter;stroke-opacity:1" />
      <path
         id="path3100"
         d="m 237.72755,108.91697 c 1.38749,1.96029 1.26308,2.52013 4.06227,2.39572 2.79918,-0.12441 5.56726,-2.70588 5.47396,-3.32792 -0.0933,-0.62204 -0.0173,-2.52445 -1.40824,-3.47047 -1.39095,-0.94602 -1.77799,-1.18533 -1.77799,-1.18533"
         style="fill:none;stroke:#000000;stroke-width:0.264583px;stroke-linecap:butt;stroke-linejoin:miter;stroke-opacity:1" />
      <path
         id="path3102"
         d="m 236.11888,110.39863 c 1.13004,2.18924 1.29419,3.79532 5.51543,3.99316 4.22123,0.19785 6.19103,-1.26769 7.15347,-3.60784 0.96243,-2.34014 1.97843,-4.09769 0.0311,-5.69167 -1.94734,-1.59398 -2.25778,-1.69276 -2.25778,-1.69276"
         style="fill:none;stroke:#000000;stroke-width:0.264583px;stroke-linecap:butt;stroke-linejoin:miter;stroke-opacity:1" />
      <path
         sodipodi:nodetypes="cssssc"
         id="path3104"
         d="m 234.78072,114.33563 c 3.9611,2.57543 4.47946,2.66577 7.94216,3.25967 5.04393,0.86511 7.59926,-2.30941 7.874,-2.86532 0.27473,-0.5559 -0.12959,0.15944 0.39914,-0.83582 0.52874,-0.99527 1.03443,-4.21836 0.93709,-5.77922 -0.0973,-1.56086 -1.77684,-3.39588 -1.77684,-3.39588"
         style="fill:none;stroke:#000000;stroke-width:0.264583px;stroke-linecap:butt;stroke-linejoin:miter;stroke-opacity:1" />
      <path
         sodipodi:nodetypes="csssc"
         id="path3106"
         d="m 235.50504,117.29298 c 3.88992,2.10624 4.60116,2.45364 6.6093,2.69982 5.26888,0.64591 7.46654,-0.16289 8.99054,-1.7625 1.524,-1.59961 2.65427,-4.07788 2.83028,-5.95672 0.17602,-1.87883 -1.47734,-6.12383 -1.47734,-6.12383"
         style="fill:none;stroke:#000000;stroke-width:0.264583px;stroke-linecap:butt;stroke-linejoin:miter;stroke-opacity:1" />
    </g>
    <g
       transform="matrix(0.14676458,0,0,0.14676458,232.75788,99.281166)"
       id="g1111">
      <g
         id="g1090"
         transform="matrix(0.26458333,0,0,0.26458333,122.60415,-0.56152015)"
         style="fill:none;stroke:#000000;stroke-width:11.3386;stroke-miterlimit:4;stroke-dasharray:none;stroke-opacity:0.659919">
        <g
           id="g1033"
           style="fill:none;stroke:#000000;stroke-width:11.3386;stroke-miterlimit:4;stroke-dasharray:none;stroke-opacity:0.659919">
          <path
             id="path1029"
             d="m 291.641,148.041 c -4.521,-1.968 -9.773,0.083 -11.74,4.604 -0.337,0.753 -6.237,13.531 -20.072,20.777 4.129,-5.834 7.395,-11.523 9.955,-16.794 12.172,-25.057 11.727,-46.259 11.702,-47.15 -0.138,-4.929 -4.239,-8.84 -9.175,-8.675 -4.929,0.138 -8.813,4.245 -8.675,9.175 0.015,0.52 0.516,38.164 -32.664,69.396 -13.195,-15.72 -11.573,-37.525 -11.547,-37.848 0.431,-4.898 -3.181,-9.226 -8.081,-9.675 -4.919,-0.452 -9.256,3.167 -9.705,8.079 -0.112,1.229 -2.413,29.147 15.431,50.646 -8.539,5.888 -18.653,11.284 -30.609,15.834 -1.215,-16.721 -5.344,-35.084 -14.398,-54.012 -3.643,-7.615 -7.004,-15.006 -10.105,-22.151 32.06,-14.186 46.109,-38.733 52.246,-57.58 0.034,-0.106 0.065,-0.211 0.099,-0.316 29.84,-0.5 47.222,-24.197 51.291,-37.559 1.436,-4.717 -1.216,-9.728 -5.933,-11.164 -4.722,-1.442 -9.7,1.201 -11.136,5.917 -0.323,1.022 -7.538,22.944 -30.065,24.828 1.926,-13.133 1.008,-22.549 0.951,-23.102 -0.507,-4.896 -4.87,-8.439 -9.776,-7.952 -4.897,0.494 -8.469,4.87 -7.989,9.768 0.016,0.162 1.506,16.289 -4.622,34.653 -1.813,5.435 -4.103,10.468 -6.816,15.135 -10.606,-7.832 -16.157,-28.717 -17.377,-36.54 -0.754,-4.869 -5.3,-8.211 -10.177,-7.462 -4.874,0.747 -8.22,5.304 -7.473,10.179 0.616,4.017 5.822,34.353 24.206,48.076 -6.685,6.83 -14.802,12.382 -24.317,16.63 -23.739,-59.176 -28.666,-97.687 -28.722,-98.147 -0.593,-4.892 -5.033,-8.374 -9.929,-7.792 -4.896,0.588 -8.388,5.034 -7.801,9.93 0.285,2.367 7.422,58.925 47.333,142.357 12.019,25.125 15.732,52.197 11.034,80.467 -0.085,0.511 -0.172,1.017 -0.261,1.519 -0.226,-0.701 -0.459,-1.409 -0.7,-2.122 -7.101,-20.94 -23.11,-51.051 -59.05,-75.584 -2.803,-1.913 -5.495,-3.936 -8.106,-6.039 10.448,-9.226 15.913,-22.759 15.913,-39.688 0,-14.658 -4.196,-26.863 -4.374,-27.375 -1.623,-4.656 -6.717,-7.113 -11.37,-5.492 -4.656,1.624 -7.115,6.714 -5.492,11.37 0.123,0.354 11.438,33.689 -7.867,48.899 C 71.886,131.164 61.728,112.814 55.366,91.223 48.317,67.304 48.828,48.186 48.834,48.011 c 0.172,-4.929 -3.685,-9.063 -8.613,-9.233 -4.935,-0.191 -9.063,3.685 -9.233,8.613 -0.03,0.874 -0.654,21.692 7.064,48.246 10.276,35.358 30.629,64.232 58.856,83.5 0.143,0.098 0.278,0.2 0.421,0.298 -6.99,-0.179 -15.362,-0.968 -24.096,-3.076 -29.113,-7.029 -47.852,-25.025 -55.694,-53.491 -1.31,-4.753 -6.227,-7.544 -10.98,-6.237 -4.754,1.31 -7.546,6.226 -6.236,10.98 9.561,34.702 33.323,57.561 68.719,66.105 11.713,2.828 22.818,3.618 31.57,3.618 8.469,0 14.722,-0.738 17.203,-1.087 9.343,9.195 17.023,19.36 23,30.435 -13,3.176 -50.148,9.248 -79.657,-15.266 -3.792,-3.15 -9.421,-2.631 -12.573,1.163 -3.151,3.792 -2.63,9.421 1.163,12.573 21.566,17.917 45.798,22.588 65.207,22.588 15.325,0 27.638,-2.912 33.261,-4.517 0.208,0.573 0.434,1.136 0.634,1.713 6.864,19.807 6.214,34.756 6.207,34.875 -0.236,4.189 2.475,7.978 6.517,9.105 0.797,0.222 1.603,0.329 2.398,0.329 3.241,0 6.312,-1.772 7.889,-4.749 0.316,-0.596 2.263,-4.354 4.654,-10.624 51.675,-1.83 85.089,-32.129 86.596,-33.522 3.615,-3.341 3.837,-8.971 0.505,-12.594 -3.331,-3.622 -8.975,-3.859 -12.608,-0.535 -0.305,0.279 -27.389,24.598 -68.812,28.375 2.123,-8.633 3.886,-18.874 4.464,-30.267 22.448,-7.672 39.474,-18.024 52.378,-29.129 0.078,0 0.157,0.001 0.235,0.001 40.681,0 56.332,-34.892 56.982,-36.385 1.969,-4.526 -0.093,-9.808 -4.614,-11.775 z"
             style="fill:none;stroke:#000000;stroke-width:11.3386;stroke-miterlimit:4;stroke-dasharray:none;stroke-opacity:0.659919" />
          <path
             id="path1031"
             d="m 291.641,148.041 c -4.521,-1.968 -9.773,0.083 -11.74,4.604 -0.337,0.753 -6.237,13.531 -20.072,20.777 4.129,-5.834 7.395,-11.523 9.955,-16.794 12.172,-25.057 11.727,-46.259 11.702,-47.15 -0.138,-4.929 -4.239,-8.84 -9.175,-8.675 -4.929,0.138 -8.813,4.245 -8.675,9.175 0.015,0.52 0.516,38.164 -32.664,69.396 -13.195,-15.72 -11.573,-37.525 -11.547,-37.848 0.431,-4.898 -3.181,-9.226 -8.081,-9.675 -4.919,-0.452 -9.256,3.167 -9.705,8.079 -0.112,1.229 -2.413,29.147 15.431,50.646 -8.539,5.888 -18.653,11.284 -30.609,15.834 -1.215,-16.721 -5.344,-35.084 -14.398,-54.012 -3.643,-7.615 -7.004,-15.006 -10.105,-22.151 32.06,-14.186 46.109,-38.733 52.246,-57.58 0.034,-0.106 0.065,-0.211 0.099,-0.316 29.84,-0.5 47.222,-24.197 51.291,-37.559 1.436,-4.717 -1.216,-9.728 -5.933,-11.164 -4.722,-1.442 -9.7,1.201 -11.136,5.917 -0.323,1.022 -7.538,22.944 -30.065,24.828 1.926,-13.133 1.008,-22.549 0.951,-23.102 -0.507,-4.896 -4.87,-8.439 -9.776,-7.952 -4.897,0.494 -8.469,4.87 -7.989,9.768 0.016,0.162 1.506,16.289 -4.622,34.653 -1.813,5.435 -4.103,10.468 -6.816,15.135 -10.606,-7.832 -16.157,-28.717 -17.377,-36.54 -0.754,-4.869 -5.3,-8.211 -10.177,-7.462 -4.874,0.747 -8.22,5.304 -7.473,10.179 0.616,4.017 5.822,34.353 24.206,48.076 -6.685,6.83 -14.802,12.382 -24.317,16.63 -2.877,-7.171 -5.475,-14.035 -7.824,-20.568 v 48.003 c 2.713,6.134 5.61,12.442 8.706,18.913 12.019,25.125 15.732,52.197 11.034,80.467 -0.085,0.511 -0.172,1.017 -0.261,1.519 -0.226,-0.701 -0.459,-1.409 -0.7,-2.122 -3.559,-10.495 -9.357,-23.293 -18.779,-36.539 v 40.062 c 0.339,-0.093 0.669,-0.184 0.97,-0.27 0.208,0.573 0.434,1.136 0.634,1.713 6.864,19.807 6.214,34.756 6.207,34.875 -0.236,4.189 2.475,7.978 6.517,9.105 0.797,0.222 1.603,0.329 2.398,0.329 3.241,0 6.312,-1.772 7.889,-4.749 0.316,-0.596 2.263,-4.354 4.654,-10.624 51.675,-1.83 85.089,-32.129 86.596,-33.522 3.615,-3.341 3.837,-8.971 0.505,-12.594 -3.331,-3.622 -8.975,-3.859 -12.608,-0.535 -0.305,0.279 -27.389,24.598 -68.812,28.375 2.123,-8.633 3.886,-18.874 4.464,-30.267 22.448,-7.672 39.474,-18.024 52.378,-29.129 0.078,0 0.157,0.001 0.235,0.001 40.681,0 56.332,-34.892 56.982,-36.385 1.969,-4.526 -0.093,-9.808 -4.614,-11.775 z"
             style="fill:none;stroke:#000000;stroke-width:11.3386;stroke-miterlimit:4;stroke-dasharray:none;stroke-opacity:0.659919" />
        </g>
        <g
           id="g1035"
           style="fill:none;stroke:#000000;stroke-width:11.3386;stroke-miterlimit:4;stroke-dasharray:none;stroke-opacity:0.659919" />
        <g
           id="g1037"
           style="fill:none;stroke:#000000;stroke-width:11.3386;stroke-miterlimit:4;stroke-dasharray:none;stroke-opacity:0.659919" />
        <g
           id="g1039"
           style="fill:none;stroke:#000000;stroke-width:11.3386;stroke-miterlimit:4;stroke-dasharray:none;stroke-opacity:0.659919" />
        <g
           id="g1041"
           style="fill:none;stroke:#000000;stroke-width:11.3386;stroke-miterlimit:4;stroke-dasharray:none;stroke-opacity:0.659919" />
        <g
           id="g1043"
           style="fill:none;stroke:#000000;stroke-width:11.3386;stroke-miterlimit:4;stroke-dasharray:none;stroke-opacity:0.659919" />
        <g
           id="g1045"
           style="fill:none;stroke:#000000;stroke-width:11.3386;stroke-miterlimit:4;stroke-dasharray:none;stroke-opacity:0.659919" />
        <g
           id="g1047"
           style="fill:none;stroke:#000000;stroke-width:11.3386;stroke-miterlimit:4;stroke-dasharray:none;stroke-opacity:0.659919" />
        <g
           id="g1049"
           style="fill:none;stroke:#000000;stroke-width:11.3386;stroke-miterlimit:4;stroke-dasharray:none;stroke-opacity:0.659919" />
        <g
           id="g1051"
           style="fill:none;stroke:#000000;stroke-width:11.3386;stroke-miterlimit:4;stroke-dasharray:none;stroke-opacity:0.659919" />
        <g
           id="g1053"
           style="fill:none;stroke:#000000;stroke-width:11.3386;stroke-miterlimit:4;stroke-dasharray:none;stroke-opacity:0.659919" />
        <g
           id="g1055"
           style="fill:none;stroke:#000000;stroke-width:11.3386;stroke-miterlimit:4;stroke-dasharray:none;stroke-opacity:0.659919" />
        <g
           id="g1057"
           style="fill:none;stroke:#000000;stroke-width:11.3386;stroke-miterlimit:4;stroke-dasharray:none;stroke-opacity:0.659919" />
        <g
           id="g1059"
           style="fill:none;stroke:#000000;stroke-width:11.3386;stroke-miterlimit:4;stroke-dasharray:none;stroke-opacity:0.659919" />
        <g
           id="g1061"
           style="fill:none;stroke:#000000;stroke-width:11.3386;stroke-miterlimit:4;stroke-dasharray:none;stroke-opacity:0.659919" />
        <g
           id="g1063"
           style="fill:none;stroke:#000000;stroke-width:11.3386;stroke-miterlimit:4;stroke-dasharray:none;stroke-opacity:0.659919" />
      </g>
    </g>
    <path
       style="stroke-width:0.278915;stroke-miterlimit:4;stroke-dasharray:none"
       id="path970"
       stroke-width="0.00129258"
       stroke="#000000"
       fill="#000000"
       d="m 271.07544,68.174124 c -0.92818,0.02916 -1.73832,0.22969 -2.39837,0.547323 -1.0058,0.48401 -1.66119,1.249431 -1.83876,2.127791 l 0.17219,0.0369 -0.0246,2.115494 c -0.0365,0.01557 -0.0614,0.05024 -0.0614,0.09225 0,0.04066 0.027,0.07608 0.0614,0.09225 l -0.007,0.393579 v 0.0061 c -0.004,0.08962 -0.0292,0.146099 -0.0615,0.178342 -0.0327,0.03264 -0.063,0.04835 -0.10454,0.04304 -0.0416,-0.0053 -0.13684,0.02562 -0.2091,-0.209089 0.003,-0.01638 0.0117,-0.0018 0.043,-0.01845 l -0.0738,-0.110695 c -0.0491,0.221054 0.0926,0.401727 0.22138,0.41818 0.0644,0.0082 0.12722,-0.01666 0.17835,-0.06765 0.0511,-0.05097 0.0825,-0.126753 0.0861,-0.233688 l 0.007,-0.39973 c 0.0353,-0.01585 0.0615,-0.05102 0.0615,-0.09225 0,-0.04201 -0.0249,-0.07667 -0.0615,-0.09225 l 0.0184,-2.097044 c 0.005,-0.02461 0.0126,-0.04935 0.0184,-0.07379 l 2.50292,-2.164684 4.90746,0.362832 h 0.007 l 4.32323,2.416828 c 0.0474,0.03637 0.0939,0.07357 0.14144,0.110694 l 4.58152,5.067344 c -0.025,-0.0047 -0.0474,-0.0123 -0.0738,-0.0123 -0.22796,0 -0.41818,0.190228 -0.41818,0.418179 0,0.227958 0.19022,0.412029 0.41818,0.412029 0.22796,0 0.41203,-0.184071 0.41203,-0.412029 0,-0.128223 -0.062,-0.24408 -0.15375,-0.319783 l 0.007,-0.0061 -4.36013,-4.815208 c 1.45757,1.197164 2.97257,2.751704 4.49542,4.735261 l 0.1968,-0.153741 c -4.17041,-5.432093 -8.28752,-7.711479 -11.463,-8.19755 -0.39694,-0.06076 -0.77799,-0.09088 -1.14384,-0.09839 -0.1372,-0.0028 -0.27328,-0.0042 -0.40589,0 z m 5.57777,0.104545 c -0.006,0.01794 4.9e-4,0.02486 0.0184,0.01845 0.006,-0.01794 -0.002,-0.02358 -0.0184,-0.01845 z m -5.17804,0.153742 c 0.35417,0.0073 0.72664,0.03309 1.11309,0.09225 0.51568,0.07893 1.06396,0.210563 1.62968,0.39358 l -4.38473,-0.319784 c 0.49553,-0.115304 1.04072,-0.178288 1.64196,-0.166042 z m -2.0417,0.270586 -2.29383,1.980201 c 0.2177,-0.699086 0.79196,-1.319251 1.65426,-1.734213 0.19816,-0.09536 0.41204,-0.174503 0.63957,-0.245988 z m 5.55318,0.491975 c 1.06661,0.425709 2.2009,1.047813 3.38232,1.900255 z m -7.96386,3.855856 c 0.0239,0 0.043,0.01845 0.043,0.04305 0,0.02459 -0.0191,0.0492 -0.043,0.0492 -0.0239,0 -0.043,-0.02461 -0.043,-0.0492 0,-0.02459 0.0191,-0.04305 0.043,-0.04305 z m 17.24989,3.480725 -0.30749,0.282885 1.57433,1.709614 0.30747,-0.282886 z" />
    <g
       id="g1052"
       transform="matrix(0.92971687,0,0,0.92971687,-66.026784,0.13033746)">
      <path
         sodipodi:nodetypes="cccccccsccscccsssccccccccsccccsscccscscssssccsccscccccssssccccccccssscsccsscc"
         style="stroke-width:0.0112005"
         d="m 378.96534,94.818054 c -0.15479,-0.0407 -0.30354,-0.14416 -0.38228,-0.26602 -0.0598,-0.0924 -0.0868,-0.17227 -0.0988,-0.29121 -0.01,-0.0968 -0.0142,-1.56584 -0.0123,-4.04005 3.5e-4,-0.60057 -0.002,-1.66552 -0.007,-2.36556 l -0.008,-1.27462 h 1.33622 l 7e-4,0.40602 c 3.5e-4,0.22334 7e-4,1.94106 10e-4,3.81715 1.6e-4,3.77347 0.005,3.49906 -0.0702,3.66259 -0.0644,0.13933 -0.18056,0.25503 -0.3134,0.31193 -0.12903,0.0553 -0.32313,0.0728 -0.44701,0.0403 z m 1.80329,-0.0104 c -0.19635,-0.0479 -0.35999,-0.17775 -0.43738,-0.34711 -0.0169,-0.037 -0.0371,-0.0899 -0.0449,-0.1176 -0.0113,-0.0402 -0.0139,-0.82806 -0.0129,-3.90228 7e-4,-2.11803 0.004,-3.85523 0.008,-3.85859 0.004,-0.004 0.30152,-0.009 0.66139,-0.0103 l 0.65433,-0.003 0.003,0.22726 c 0.001,0.125 0.002,0.27262 0.002,0.32807 -3.5e-4,0.0554 -0.004,1.67336 -0.007,3.59538 -0.004,2.46973 -0.01,3.51362 -0.0184,3.56066 -0.019,0.10234 -0.0438,0.16689 -0.0933,0.24361 -0.0938,0.14516 -0.22491,0.24182 -0.3843,0.28326 -0.0805,0.021 -0.24529,0.0212 -0.33052,3.5e-4 z m -2.29724,-9.66834 c -0.002,-2.34652 -0.01,-4.68296 -0.0162,-4.73672 -0.008,-0.0665 -0.0471,-0.13407 -0.0987,-0.16891 -0.1048,-0.0708 -0.23813,-0.0242 -0.29503,0.10326 -0.019,0.0426 -0.0199,0.14796 -0.0172,2.12251 10e-4,1.14245 0.006,2.407 0.01,2.8091 l 0.007,0.73083 h -0.068 c -0.0762,0 -0.18951,-0.0216 -0.28281,-0.0541 -0.36783,-0.12769 -0.65456,-0.49809 -0.76254,-0.98531 -0.0241,-0.10849 -0.0241,-0.11183 -0.0346,-2.55037 -0.0118,-2.7195 -0.0166,-2.51117 0.0649,-2.75982 0.0519,-0.15838 0.18806,-0.42977 0.28169,-0.56171 0.14124,-0.19915 0.4627,-0.49731 0.70318,-0.65232 0.17148,-0.11053 0.37813,-0.19579 0.53763,-0.22166 0.10971,-0.0178 2.97262,-0.0182 3.07119,-3.5e-4 0.40401,0.0734 0.95698,0.49764 1.26566,0.97153 0.12668,0.19411 0.2323,0.44512 0.27968,0.66465 0.0195,0.0902 0.0206,0.2109 0.0225,2.37452 10e-4,1.25334 -0.003,2.36556 -0.008,2.47084 -0.0228,0.42999 -0.11096,0.67036 -0.34509,0.94085 -0.1763,0.20374 -0.42495,0.33568 -0.67316,0.35741 l -0.0899,0.008 -0.001,-0.20587 c -7e-4,-0.11324 -0.002,-1.37543 -0.004,-2.80462 -0.001,-1.42919 -0.007,-2.61421 -0.0115,-2.63213 -0.015,-0.0581 -0.0508,-0.10558 -0.10247,-0.13587 -0.0953,-0.0558 -0.21986,-0.0187 -0.26646,0.0795 -0.0332,0.07 -0.0427,0.16935 -0.0352,0.36995 0.007,0.18772 0.008,0.80129 0.006,3.88212 l -0.001,1.5636 -0.10859,0.007 c -0.0597,0.004 -0.76511,0.007 -1.56696,0.007 l -1.45831,1.6e-4 -7e-4,-0.99405 z m 1.36199,-7.86056 c -0.59699,-0.0971 -1.09665,-0.5075 -1.29254,-1.06103 -0.0605,-0.1716 -0.084,-0.32381 -0.0842,-0.54614 -2.4e-4,-0.2836 0.0387,-0.46572 0.15065,-0.70463 0.14158,-0.30197 0.42338,-0.59251 0.72019,-0.74237 0.19568,-0.0988 0.50078,-0.17708 0.68906,-0.17697 0.4291,3.8e-4 0.77844,0.1166 1.07963,0.35909 0.29267,0.23555 0.50559,0.59576 0.57537,0.97377 0.0294,0.15883 0.0267,0.4506 -0.005,0.60035 -0.0831,0.38755 -0.26568,0.6978 -0.55096,0.93648 -0.22356,0.18705 -0.46986,0.30175 -0.75043,0.34946 -0.15491,0.0264 -0.4086,0.0321 -0.53203,0.012 z"
         id="path1039" />
    </g>
    <path
       style="fill:none;fill-opacity:1;stroke:#fd0000;stroke-width:4.43264;stroke-linecap:butt;stroke-linejoin:miter;stroke-miterlimit:4;stroke-dasharray:none;stroke-opacity:0.197581;marker-end:url(#marker1340)"
       d="M 32.980303,183.02894 H 292.61503"
       id="path1054"
       sodipodi:nodetypes="cc" />
    <path
       style="fill:none;fill-opacity:1;stroke:#fd0000;stroke-width:4.43264;stroke-linecap:butt;stroke-linejoin:miter;stroke-miterlimit:4;stroke-dasharray:none;stroke-opacity:0.197581;marker-end:url(#marker1330)"
       d="M 27.103692,173.20091 V 12.646063"
       id="path1056"
       sodipodi:nodetypes="cc" />
    <path
       style="fill:none;fill-opacity:1;stroke:url(#radialGradient2924);stroke-width:4.43264;stroke-linecap:butt;stroke-linejoin:miter;stroke-miterlimit:4;stroke-dasharray:none;stroke-opacity:0.391129"
       d="m 42.452404,177.20909 c 75.225416,-46.47875 75.888126,-70.69931 113.590116,-70.75452 71.66993,0 140.63539,-63.679039 140.63539,-63.679039"
       id="path1426"
       sodipodi:nodetypes="ccc" />
    <path
       sodipodi:nodetypes="cc"
       id="path1480"
       d="M 74.511181,166.05839 H 97.435866"
       style="fill:none;stroke:#000000;stroke-width:0.929717;stroke-linecap:butt;stroke-linejoin:miter;stroke-miterlimit:4;stroke-dasharray:none;stroke-opacity:1;marker-end:url(#marker1502)" />
    <path
       sodipodi:nodetypes="cc"
       id="path1482"
       d="m 72.656947,163.40848 v -56.9945"
       style="fill:none;stroke:#000000;stroke-width:0.929717;stroke-linecap:butt;stroke-linejoin:miter;stroke-miterlimit:4;stroke-dasharray:none;stroke-opacity:1;marker-end:url(#marker1492)" />
    <path
       sodipodi:nodetypes="ccc"
       id="path1484"
       d="m 87.043721,160.58692 c -3.688535,-21.17483 -5.475897,-48.8805 3.568275,-48.89062 17.192604,0 -1.621942,-10.38044 -1.621942,-10.38044"
       style="fill:none;stroke:#000000;stroke-width:0.929717;stroke-linecap:butt;stroke-linejoin:miter;stroke-miterlimit:4;stroke-dasharray:none;stroke-opacity:1" />
    <text
       id="text1488"
       y="174.70325"
       x="72.257057"
       style="font-style:normal;font-weight:normal;font-size:6.55967px;line-height:1.25;font-family:sans-serif;fill:#000000;fill-opacity:1;stroke:none;stroke-width:0.245987"
       xml:space="preserve"><tspan
         style="font-size:6.55967px;stroke-width:0.245987"
         y="174.70325"
         x="72.257057"
         id="tspan1486"
         sodipodi:role="line">alkalinity</tspan></text>
    <path
       style="fill:none;stroke:#000000;stroke-width:0.929717;stroke-linecap:butt;stroke-linejoin:miter;stroke-miterlimit:4;stroke-dasharray:none;stroke-opacity:0.538462;marker-end:url(#marker1600)"
       d="m 89.96322,109.34426 v 11.678"
       id="path1596" />
    <text
       xml:space="preserve"
       style="font-style:normal;font-weight:normal;font-size:6.55967px;line-height:1.25;font-family:sans-serif;fill:#000000;fill-opacity:1;stroke:none;stroke-width:0.245987"
       x="88.800888"
       y="129.6132"
       id="text1658"><tspan
         sodipodi:role="line"
         id="tspan1656"
         x="88.800888"
         y="129.6132"
         style="font-size:6.55967px;stroke-width:0.245987">?</tspan></text>
    <path
       sodipodi:nodetypes="cc"
       style="fill:none;stroke:#000000;stroke-width:0.929717;stroke-linecap:butt;stroke-linejoin:miter;stroke-miterlimit:4;stroke-dasharray:none;stroke-opacity:1;marker-end:url(#marker1798)"
       d="M 47.468283,107.61947 V 94.384203"
       id="path1660" />
    <text
       xml:space="preserve"
       style="font-style:normal;font-weight:normal;font-size:6.55967px;line-height:1.25;font-family:sans-serif;fill:#000000;fill-opacity:1;stroke:none;stroke-width:0.245987"
       x="40.142559"
       y="89.350769"
       id="text1782"><tspan
         sodipodi:role="line"
         id="tspan1780"
         x="40.142559"
         y="89.350769"
         style="font-size:6.55967px;stroke-width:0.245987">DMS</tspan></text>
    <path
       id="path1832"
       d="M 115.26554,109.66865 V 90.529715"
       style="fill:none;stroke:#000000;stroke-width:0.929717;stroke-linecap:butt;stroke-linejoin:miter;stroke-miterlimit:4;stroke-dasharray:none;stroke-opacity:1;marker-start:url(#Arrow1Sstart);marker-end:url(#marker1840)" />
    <text
       id="text1836"
       y="87.46418"
       x="107.93983"
       style="font-style:normal;font-weight:normal;font-size:6.55967px;line-height:1.25;font-family:sans-serif;fill:#000000;fill-opacity:1;stroke:none;stroke-width:0.245987"
       xml:space="preserve"><tspan
         style="font-size:6.55967px;stroke-width:0.245987"
         y="87.46418"
         x="107.93983"
         id="tspan1834"
         sodipodi:role="line">CO<tspan
   style="font-size:4.26379px;baseline-shift:sub;stroke-width:0.245987"
   id="tspan2004">2</tspan></tspan></text>
    <path
       style="fill:none;stroke:#000000;stroke-width:0.929717;stroke-linecap:butt;stroke-linejoin:miter;stroke-miterlimit:4;stroke-dasharray:none;stroke-opacity:1"
       d="m 314.07859,79.981684 c 0,0 -3.49871,-9.260565 -4.36305,-19.138941"
       id="path966"
       sodipodi:nodetypes="cc" />
    <path
       sodipodi:nodetypes="cc"
       id="path968"
       d="m 299.86851,79.981684 c 0,0 3.49871,-9.260565 4.36305,-19.138941"
       style="fill:none;stroke:#000000;stroke-width:0.929717;stroke-linecap:butt;stroke-linejoin:miter;stroke-miterlimit:4;stroke-dasharray:none;stroke-opacity:1" />
    <path
       transform="matrix(0.92971687,0,0,0.92971687,9.1904019,8.7837284)"
       d="m 321.67644,54.028517 c -3.68641,-4.007766 -6.95497,-8.417544 -9.8466,-13.029819 -0.91143,-1.45378 -1.73955,-2.958161 -2.60934,-4.437243 -0.72226,-1.56819 -1.56644,-3.085798 -2.16684,-4.704577 -1.89783,-5.116891 -2.92838,-11.614256 -0.71757,-16.818627 0.37946,-0.893255 1.00444,-1.660936 1.50664,-2.491403 0.61979,-0.568415 2.32574,-1.00542 1.85939,-1.705245 -0.46125,-0.692148 -2.13551,0.649139 -2.01478,1.472082 0.10687,0.728356 1.45894,-0.261043 2.19491,-0.244408 1.45367,0.03286 2.85159,0.479334 4.11501,1.176768 0.60383,0.33334 1.12837,0.79357 1.69254,1.190355 0.4487,0.526261 0.98194,0.99085 1.34614,1.578782 1.19917,1.935926 1.48924,4.418594 1.22955,6.640447 -0.23172,1.982644 -0.66157,2.729126 -1.38224,4.570834 -0.52152,0.78953 -0.97605,1.627661 -1.56458,2.368587 -1.21653,1.531509 -3.52672,3.743108 -5.03516,4.9139 -1.18221,0.917591 -2.44499,1.727155 -3.69194,2.554597 -0.22754,0.150979 -0.47961,0.261943 -0.72697,0.377619 -1.63139,0.762907 -3.27234,1.505191 -4.90852,2.257785 -2.46391,0.850871 -7.11219,2.590858 -9.80075,3.026378 -5.60123,0.907349 -12.07895,0.448924 -17.66509,-0.416269 -1.62132,-0.251113 -3.21742,-0.644258 -4.82614,-0.966385 -2.91298,-0.972953 -6.13059,-1.879209 -8.32724,-4.194345 -0.57249,-0.603371 -1.13233,-1.423363 -0.84872,-2.313588 0.0981,-0.308051 0.39344,-0.513135 0.59017,-0.769704 0.30842,-0.196901 1.2222,-0.804553 0.92528,-0.590701 -1.00901,0.726712 -2.33244,1.123415 -3.06252,2.129991 -0.29875,0.411887 1.02073,-0.06854 1.52641,-0.01215 1.72599,0.192514 3.15731,1.004068 4.62127,1.860942 1.59263,1.096497 2.90634,2.611128 3.26265,4.570603 0.23207,1.276062 0.0557,1.635196 -0.15854,2.900265 -0.19743,0.506571 -0.33147,1.042685 -0.59232,1.519713 -0.78282,1.431602 -2.00565,2.700454 -3.14351,3.825664 -2.70535,2.675302 -5.68994,4.96502 -8.72242,7.248276 -2.12643,1.414042 -4.57769,3.133426 -6.86212,4.297621 -0.1431,0.07292 0.4115,-0.456898 0.25909,-0.406243 -1.36679,0.454257 -2.6422,1.151702 -3.9944,1.647684 -4.30327,1.578422 -5.33841,1.696527 -9.87699,2.816569 -4.69289,0.965923 -9.43024,1.73564 -14.2112,2.092053 -1.69107,0.126068 -4.10855,0.265422 -5.85547,0.01323 -0.64291,-0.09282 -1.25526,-0.334859 -1.88289,-0.502288 -1.37326,-0.813922 -2.21032,-1.67555 -2.44724,-3.302653 -0.055,-0.377704 -0.0782,-0.772089 0.003,-1.145059 0.0729,-0.335237 0.76697,-1.052158 0.44762,-0.926782 -1.00572,0.394851 -1.79378,1.204941 -2.69067,1.807414 0.7918,-0.214022 1.56589,-0.510062 2.37542,-0.64206 4.64816,-0.757901 10.05779,0.897785 14.33302,2.624127 1.11069,0.448501 2.17549,1.003218 3.26323,1.504829 0.88485,0.574386 1.8244,1.072208 2.65454,1.723157 2.02537,1.58818 3.63715,3.697076 4.39562,6.170853 0.55897,1.823117 0.40008,2.292884 0.35708,4.157898 -0.21138,0.741868 -0.36113,1.504132 -0.63413,2.225601 -1.45722,3.850994 -4.24984,7.186808 -6.97194,10.20242 -1.43038,1.379842 -1.45767,1.533594 -3.14175,2.637997 -0.66202,0.434144 -1.28336,0.986917 -2.04222,1.212474 -0.70145,0.208492 2.5913,-1.241631 1.86414,-1.159542 -0.96602,0.109051 -1.75171,0.84405 -2.63653,1.246735 -0.98487,0.448218 -1.98135,0.870485 -2.97202,1.305727 -4.63505,1.93022 -9.21936,4.005297 -13.99389,5.572257 -3.12809,0.97036 -6.34058,1.61034 -9.49901,2.47046 -0.44323,0.11992 -0.88646,0.23984 -1.32969,0.35976 0,0 -3.96457,3.04277 -3.96457,3.04277 v 0 c 0.4432,-0.11858 0.88639,-0.23715 1.32959,-0.35573 3.19117,-0.89106 6.42845,-1.58379 9.60496,-2.52512 4.85652,-1.54509 9.47401,-3.72108 14.18109,-5.6597 0.838,-0.360196 4.63657,-1.967921 5.54452,-2.450603 2.15101,-1.143508 4.25796,-2.368399 6.36901,-3.584075 1.90188,-1.095216 3.70891,-2.311712 5.14814,-3.993004 2.70739,-3.110048 5.46348,-6.455744 6.86754,-10.398551 0.27242,-0.764974 0.41191,-1.570961 0.61786,-2.35644 -0.006,-1.968905 0.14904,-2.410053 -0.48852,-4.315677 -0.85154,-2.54521 -2.5428,-4.714214 -4.6657,-6.339139 -0.86151,-0.659434 -1.83393,-1.159719 -2.7509,-1.739577 -1.11398,-0.499613 -2.20842,-1.045311 -3.34195,-1.498838 -2.32688,-0.930995 -5.31331,-1.90278 -7.75531,-2.463305 -1.20023,-0.275495 -2.41117,-0.538771 -3.63842,-0.640244 -2.13588,-0.176602 -3.21796,0.170674 -5.22881,0.571973 -1.91289,1.136047 -3.95171,2.082808 -5.73868,3.408138 -0.30864,0.228909 -0.29907,0.71919 -0.34125,1.101132 -0.15014,1.359286 0.47225,2.932962 1.4351,3.88067 0.42494,0.418248 0.97031,0.693187 1.45547,1.039781 0.67573,0.175003 1.33531,0.432538 2.02718,0.525007 1.83782,0.245621 4.3326,0.04384 6.11085,-0.113953 4.84049,-0.429525 9.63715,-1.227878 14.40318,-2.162498 4.38073,-1.028758 5.6185,-1.187863 9.77934,-2.657472 4.72901,-1.670288 6.51363,-2.869044 11.50692,-5.655096 1.17222,-0.65405 2.32407,-1.345443 3.45743,-2.064729 1.15101,-0.730477 2.26213,-1.521986 3.39319,-2.282981 3.07174,-2.327926 6.10907,-4.670266 8.85309,-7.389796 1.27466,-1.263267 2.4506,-2.483729 3.26922,-4.089358 0.26019,-0.510352 0.37941,-1.081066 0.56909,-1.621599 0.17886,-1.362472 0.34642,-1.747925 0.0681,-3.109503 -0.42174,-2.063371 -1.78829,-3.695044 -3.48178,-4.861208 -1.5117,-0.901538 -2.98164,-1.754608 -4.74307,-2.075505 -0.51955,-0.09465 -1.08375,-0.31247 -1.57903,-0.129209 -4.53603,1.678384 -4.31568,1.620752 -6.45635,3.565641 -0.14684,0.347578 -0.4023,0.667348 -0.44053,1.042728 -0.1057,1.037759 0.51316,1.887257 1.22275,2.557952 2.41517,2.282793 5.75988,3.162604 8.82814,4.12455 1.65041,0.306279 3.29033,0.675867 4.95122,0.91884 3.58884,0.525002 8.23889,0.925115 11.84849,0.922416 1.93382,-0.0013 3.88176,-0.0013 5.79438,-0.286998 2.27647,-0.339879 7.87461,-2.338539 9.91447,-3.02496 6.4794,-2.910962 5.68174,-2.357501 13.15288,-6.945133 3.28327,-2.016072 6.54847,-4.672862 8.92239,-7.742298 0.60351,-0.780349 1.06243,-1.66252 1.59366,-2.493781 0.70782,-1.929005 1.11691,-2.662259 1.31845,-4.7288 0.2273,-2.330928 -0.12274,-4.930666 -1.36038,-6.961667 -0.38077,-0.624852 -0.93864,-1.122795 -1.40793,-1.684192 -1.49688,-1.078998 -1.99824,-1.616072 -3.80061,-2.1940963 -4.90233,-1.5721989 -9.22581,1.1719773 -12.48076,4.8463453 -0.45877,0.855017 -1.03926,1.655145 -1.37631,2.56505 -1.96218,5.29714 -0.78399,11.834582 1.13146,16.953032 0.61021,1.63059 1.45447,3.163739 2.1817,4.745611 2.4638,4.21635 4.97449,8.389699 7.76219,12.403479 0.6182,0.890095 1.28786,1.74335 1.9236,2.62101 2.00631,2.769814 0.76168,1.1654 2.16794,2.941775 0,0 4.36753,-2.676432 4.36753,-2.676432 z"
       id="path977"
       style="opacity:1;fill:#000000;fill-opacity:1;stroke:#000000;stroke-width:1;stroke-linecap:round;stroke-miterlimit:4;stroke-dasharray:none;stroke-opacity:1;filter:url(#filter1075)" />
    <path
       d="m 307.91337,57.499592 c -2.4649,-1.783737 -4.24762,-4.383115 -5.62908,-7.058358 -0.61271,-1.186469 -1.18549,-2.398964 -1.64399,-3.653107 -0.47633,-1.302908 -0.76896,-2.66581 -1.15343,-3.998713 -0.1316,-1.284776 -0.48914,-2.56628 -0.39479,-3.854326 0.14999,-2.047376 1.29474,-4.638316 2.5923,-6.227817 0.61607,-0.754704 1.6009,-1.157772 2.19474,-1.930102 0.37676,-0.489978 -1.77661,0.493164 -1.52342,1.057002 0.26245,0.58449 1.27512,-0.126729 1.9127,-0.190093 0.52403,0.227833 1.1069,0.351682 1.57208,0.683499 2.24277,1.599699 2.58631,5.017878 1.80575,7.447599 -0.30904,0.962025 -0.85749,1.82995 -1.28624,2.744926 -0.97353,1.015116 -1.83867,2.14662 -2.92057,3.045349 -1.40786,1.169508 -2.95007,2.174867 -4.51203,3.128902 -0.71582,0.437224 -1.51619,0.72082 -2.29609,1.029532 -2.19054,0.867084 -4.36215,1.798078 -6.61213,2.496609 -2.30425,0.715391 -4.64987,1.322299 -7.0266,1.737709 -2.33869,0.408752 -4.72334,0.485818 -7.08501,0.728725 -5.84504,-0.01635 -11.69694,-0.620306 -16.97875,-3.31911 -1.76976,-0.904285 -4.20588,-2.631522 -5.39443,-4.372014 -0.40225,-0.589032 -0.51358,-1.330886 -0.77037,-1.996329 0.0799,-0.545224 0.0164,-1.131838 0.23949,-1.635673 0.20204,-0.456186 1.44571,-1.317492 0.98435,-1.127577 -0.91281,0.375741 -2.0005,0.819355 -2.41355,1.715889 -0.23656,0.513442 1.12621,-0.189757 1.68974,-0.144853 1.56373,0.124613 1.89716,0.550658 3.18405,1.354795 0.41422,0.443382 0.88022,0.843537 1.24269,1.330146 1.23852,1.66269 1.76316,3.628198 1.86689,5.674011 0.0441,0.868672 0.0799,1.746993 -0.0353,2.609128 -0.14867,1.113131 -0.50116,2.189405 -0.75174,3.284109 -0.53001,1.339304 -0.9903,2.708343 -1.59001,4.017914 -1.25226,2.734396 -2.98829,5.852901 -4.88032,8.202135 -2.5004,3.104606 -4.41317,4.555175 -7.66904,6.86275 -0.43727,0.309915 -0.941,0.513367 -1.4115,0.77005 -4.37786,2.066358 -8.89803,4.056714 -13.7229,4.813426 -2.31914,0.363724 -4.63244,0.445742 -6.90821,-0.228955 -0.8972,-0.265991 -1.69352,-0.796759 -2.54028,-1.195136 -0.5994,-0.544986 -1.30892,-0.989288 -1.79822,-1.634957 -1.19696,-1.57952 -1.19729,-3.572713 0.29122,-4.948212 0.51052,-0.471762 1.42658,-1.714796 1.7664,-1.108401 0.34752,0.620145 -1.06191,0.9454 -1.59285,1.418099 2.80715,-0.584847 5.96831,-0.962022 8.46229,0.823277 1.41047,1.009668 1.49063,1.565024 2.27587,3.036935 0.10601,0.647801 0.32369,1.28701 0.31803,1.943403 -0.0137,1.584135 -0.68589,3.323578 -1.43525,4.66453 -1.94307,3.477083 -4.84678,6.203981 -7.65053,8.962455 -7.32256,6.316777 -15.5045,11.552807 -23.83837,16.420437 0,0 3.86878,-1.48855 3.86878,-1.48855 v 0 c 8.30418,-4.91295 16.45967,-10.179074 23.77131,-16.503498 2.38611,-2.358413 3.78907,-3.575719 5.81512,-6.219065 1.72589,-2.251724 3.49856,-4.981527 3.45713,-7.955377 -0.01,-0.703253 -0.2524,-1.383815 -0.3786,-2.075722 -0.84614,-1.567954 -0.94515,-2.159165 -2.42668,-3.26042 -2.55455,-1.898846 -5.78159,-1.614724 -8.72216,-1.085182 -0.24647,0.119533 -6.38964,2.61999 -7.85532,4.270067 -1.42608,1.605488 -1.17727,3.836769 0.10276,5.443747 0.53403,0.670425 1.28126,1.138852 1.92189,1.708276 0.88859,0.419588 1.72417,0.977611 2.66576,1.258765 2.35448,0.70304 4.75467,0.624872 7.15514,0.24922 4.89649,-0.766264 9.48712,-2.784919 13.94821,-4.841198 4.97114,-2.875482 8.35193,-4.338506 12.3703,-8.000557 4.80099,-4.37527 7.79805,-10.187448 10.08284,-16.172127 0.27764,-1.14242 0.66219,-2.264052 0.83293,-3.427266 0.1306,-0.889669 0.10501,-1.798443 0.0659,-2.696794 -0.0934,-2.149383 -0.66665,-4.196083 -1.94707,-5.949631 -0.37956,-0.51981 -0.86504,-0.953295 -1.29756,-1.429942 -1.35849,-0.917113 -1.6674,-1.350052 -3.32915,-1.598524 -2.8323,-0.423494 -4.7107,1.259221 -7.1861,2.95425 -0.43718,0.299362 -0.70186,0.8347 -0.8494,1.343602 -0.16665,0.574762 -0.0403,1.196187 -0.0603,1.794281 0.3276,0.688328 0.51846,1.460424 0.98283,2.064983 1.32025,1.718863 3.92137,3.449946 5.76398,4.339422 5.44413,2.628026 11.41708,3.22507 17.38361,3.254751 2.3758,-0.23252 4.77329,-0.30174 7.12738,-0.69756 3.91778,-0.658735 9.93658,-2.366668 13.57025,-4.065788 3.05229,-1.427251 5.98875,-3.09945 8.88016,-4.829555 1.63606,-0.978955 3.22573,-2.054887 4.68198,-3.285485 1.13727,-0.961033 2.03899,-2.170346 3.05846,-3.255519 0.4445,-0.969327 1.01639,-1.889829 1.33347,-2.907977 0.82603,-2.652403 0.34154,-6.219374 -1.99727,-8.000789 -0.51162,-0.389701 -1.15345,-0.569264 -1.73017,-0.853896 -0.69748,0.03258 -1.45101,-0.178271 -2.09238,0.09772 -4.10578,1.766812 -8.01535,3.930518 -9.62706,8.282103 -0.42084,1.136187 -0.75882,2.332078 -0.81451,3.542411 -0.0601,1.305534 0.31485,2.594797 0.47231,3.892197 0.38552,1.353783 0.68653,2.734531 1.15654,4.061349 0.45149,1.27455 1.01499,2.50865 1.60222,3.726628 1.33116,2.760925 2.9778,5.47117 5.28964,7.522618 0,0 4.01926,-2.585576 4.01926,-2.585576 z"
       id="path1081"
       style="opacity:0.234727;mix-blend-mode:lighten;fill:#000000;fill-opacity:1;stroke:#000000;stroke-width:0.929717;stroke-linecap:round;stroke-miterlimit:4;stroke-dasharray:none;stroke-opacity:1" />
    <text
       xml:space="preserve"
       style="font-style:normal;font-weight:normal;font-size:6.55967px;line-height:1.25;font-family:sans-serif;fill:#000000;fill-opacity:1;stroke:none;stroke-width:0.245987"
       x="187.4151"
       y="115.68601"
       id="text1087"><tspan
         sodipodi:role="line"
         id="tspan1085"
         x="187.4151"
         y="115.68601"
         style="font-size:6.55967px;stroke-width:0.245987">CO<tspan
   id="tspan1083"
   style="font-size:4.26379px;baseline-shift:sub;stroke-width:0.245987">2</tspan></tspan></text>
    <path
       sodipodi:nodetypes="cccsccssssssccscsccscccscccc"
       style="stroke-width:0.0297283"
       fill="#000000"
       d="m 171.633,81.772965 c -0.95131,1.426961 -1.15852,3.448192 -1.12969,5.23219 0.004,0.217018 0.0739,0.521436 0.1512,0.793451 0.15358,-0.07016 0.32375,-0.109698 0.50283,-0.109698 0.0904,0 0.17837,0.01028 0.26331,0.02919 z m -0.47566,6.451054 c -0.38082,0 -0.68375,0.302931 -0.68375,0.683752 0,0.38082 0.30293,0.683752 0.68375,0.683752 0.38082,0 0.68375,-0.302932 0.68375,-0.683752 0,-0.380821 -0.30293,-0.683752 -0.68375,-0.683752 z m 1.21292,0.803646 c -0.0267,0.269161 -0.14199,0.51335 -0.31608,0.702868 l 5.04324,3.156973 c -0.76015,-1.537372 -2.40692,-2.727398 -3.96635,-3.594456 -0.18926,-0.105238 -0.48713,-0.196355 -0.76084,-0.265385 z m -2.37517,0.245973 -5.25539,2.788907 c 1.71146,0.110411 3.56553,-0.720705 5.09612,-1.637736 0.18652,-0.111719 0.41471,-0.32511 0.61181,-0.528273 -0.21106,-0.152268 -0.37225,-0.370028 -0.45254,-0.622898 z m 1.66062,0.74529 c -0.15242,0.06897 -0.32107,0.107705 -0.49837,0.107705 -0.17729,0 -0.34594,-0.0387 -0.49836,-0.107616 l -0.21512,7.007506 h 1.42697 z"
       id="path1117" />
    <path
       d="m 165.52091,96.760193 h 11.30977 c 0.45966,0 0.82972,0.37006 0.82972,0.82972 v 8.966077 c 0,0.45966 -0.37006,0.82971 -0.82972,0.82971 h -11.30977 c -0.45966,0 -0.82972,-0.37005 -0.82972,-0.82971 v -8.966077 c 0,-0.45966 0.37006,-0.82972 0.82972,-0.82972 z"
       style="opacity:1;mix-blend-mode:multiply;fill:#000000;fill-opacity:0.315789;stroke:#000000;stroke-width:0.929717;stroke-linecap:round;stroke-miterlimit:4;stroke-dasharray:none;stroke-opacity:1"
       id="rect1130" />
    <path
       id="path1134"
       d="m 189.22562,106.8892 v 0"
       style="fill:none;stroke:#000000;stroke-width:0.245987px;stroke-linecap:butt;stroke-linejoin:miter;stroke-opacity:1" />
    <path
       sodipodi:nodetypes="czc"
       id="path1136"
       d="m 191.49227,109.34473 c 0,0 -9.05437,-11.930017 -18.67487,-7.13706 -9.62051,4.79297 0.47666,49.76905 0.47666,49.76905"
       style="fill:none;stroke:#000000;stroke-width:0.929717;stroke-linecap:butt;stroke-linejoin:miter;stroke-miterlimit:4;stroke-dasharray:none;stroke-opacity:1;marker-end:url(#marker1152)" />
    <text
       id="text2940"
       y="174.11028"
       x="270.86963"
       style="font-style:normal;font-weight:normal;font-size:9.83947px;line-height:1.25;font-family:sans-serif;fill:#ff0000;fill-opacity:0.620968;stroke:none;stroke-width:0.245987"
       xml:space="preserve"><tspan
         style="fill:#ff0000;fill-opacity:0.620968;stroke-width:0.245987"
         y="174.11028"
         x="270.86963"
         id="tspan2938"
         sodipodi:role="line">future</tspan></text>
    <path
       sodipodi:nodetypes="ccc"
       id="path2972"
       d="M 53.417877,72.492356 C 114.57631,59.861046 173.09967,-1.7156929 220.85047,30.370949 c 37.92012,27.688501 26.32588,60.549523 26.32588,60.549523"
       style="fill:none;stroke:#000000;stroke-width:0.918354;stroke-linecap:butt;stroke-linejoin:miter;stroke-miterlimit:4;stroke-dasharray:none;stroke-opacity:1;marker-end:url(#Arrow1Mend)" />
    <path
       sodipodi:nodetypes="cc"
       id="path2976"
       d="M 162.01126,26.554567 C 103.5678,54.46 115.02043,70.912803 115.02043,70.912803"
       style="fill:none;stroke:#000000;stroke-width:0.918354;stroke-linecap:butt;stroke-linejoin:miter;stroke-miterlimit:4;stroke-dasharray:none;stroke-opacity:1" />
    <text
       xml:space="preserve"
       style="font-style:normal;font-weight:normal;font-size:6.55967px;line-height:1.25;font-family:sans-serif;fill:#000000;fill-opacity:1;stroke:none;stroke-width:0.245987"
       x="175.61481"
       y="30.813042"
       id="text3046"><tspan
         sodipodi:role="line"
         id="tspan3044"
         x="175.61481"
         y="30.813042"
         style="font-size:6.55967px;stroke-width:0.245987">impacts</tspan></text>
  </g>
</svg>
